<svg xmlns="http://www.w3.org/2000/svg" width="95" height="98" fill="none" viewBox="0 0 95 98"><ellipse cx="47.5" cy="49" fill="#EB7077" rx="47.5" ry="49"/><path fill="#EFEAFF" d="M55.4102 30.4414C54.9284 30.4414 54.5117 30.3242 54.1602 30.0898C53.8086 29.8424 53.6328 29.4648 53.6328 28.957V27.6094C51.5625 27.7917 50.1562 28.3646 49.4141 29.3281C48.6719 30.2917 48.3008 31.8346 48.3008 33.957C48.3008 34.0872 48.3008 34.2174 48.3008 34.3477C48.3138 34.4779 48.3203 34.6081 48.3203 34.7383L48.3594 36.0859H52.6367C53.1315 36.0859 53.4896 36.2682 53.7109 36.6328C53.9323 36.9844 54.043 37.401 54.043 37.8828C54.043 38.3125 53.9128 38.6966 53.6523 39.0352C53.4049 39.3607 53.0534 39.5234 52.5977 39.5234H48.3203L48.3594 54.5625H53.2812C53.776 54.5625 54.1341 54.7448 54.3555 55.1094C54.5768 55.4609 54.6875 55.8776 54.6875 56.3594C54.6875 56.7891 54.5573 57.1732 54.2969 57.5117C54.0495 57.8372 53.6979 58 53.2422 58H40.1562C39.6094 58 39.2057 57.8438 38.9453 57.5312C38.6849 57.2188 38.5547 56.8151 38.5547 56.3203C38.5547 55.8385 38.6719 55.4284 38.9062 55.0898C39.1536 54.7383 39.5312 54.5625 40.0391 54.5625H44.3555V39.5234H40.8789C40.332 39.5234 39.9284 39.3672 39.668 39.0547C39.4076 38.7422 39.2773 38.3385 39.2773 37.8438C39.2773 37.362 39.3945 36.9518 39.6289 36.6133C39.8763 36.2617 40.2539 36.0859 40.7617 36.0859H44.3555V34.0352C44.3555 30.6107 45.332 28.0911 47.2852 26.4766C49.2383 24.849 51.9596 24.0352 55.4492 24.0352C55.8789 24.0352 56.2565 24.1654 56.582 24.4258C56.9206 24.6732 57.0898 25.0247 57.0898 25.4805V28.8398C57.0898 29.3867 56.9336 29.7904 56.6211 30.0508C56.3086 30.3112 55.9049 30.4414 55.4102 30.4414Z"/></svg>